<?xml version="1.0"?>
<svg xmlns="http://www.w3.org/2000/svg" viewBox="0 0 512 512">
    <path d="M488,288H472V24a8,8,0,0,0-8-8H336a8,8,0,0,0-8,8V254.459L314.584,288H288a8,8,0,0,0-5.206,1.926l-53.435,45.8-84.634-7.694a8,8,0,0,0-7.585,3.851l-55.8,87.678a8,8,0,0,0,2.218,11.094l24,16a8,8,0,0,0,11.094-2.218l11.1-16.646,10.526,7.368-10.935,16.4a8,8,0,0,0,2.218,11.094l24,16a8,8,0,0,0,11.094-2.218l10.37-15.555,2.386,1.671A8,8,0,0,0,184,464h24v24a8,8,0,0,0,8,8h32a8,8,0,0,0,8-8V464h32v24a8,8,0,0,0,8,8h32a8,8,0,0,0,8-8V464h32v24a8,8,0,0,0,8,8h32a8,8,0,0,0,8-8V464h32v24a8,8,0,0,0,8,8h32a8,8,0,0,0,8-8V296A8,8,0,0,0,488,288ZM456,112H344V96H456Zm0-80V80H344V32ZM343.428,258.971A8,8,0,0,0,344,256V128H456V293.784L435.471,328H363.314l-33.927-33.927ZM290.959,304h16.893l-52.51,45.946L245.224,343.2ZM148.276,344.422l80.977,7.361,22.309,14.873a8,8,0,0,0,9.706-.635L323.9,311.216l30.441,30.441A8,8,0,0,0,360,344h80a8,8,0,0,0,6.86-3.884L468.529,304H480V416H202.216l-71.24-42.744Zm-38.5,84.484-10.687-7.125,7.023-10.534,10.525,7.368Zm48,32-10.687-7.125,6.3-9.443,10.526,7.368Zm-42.787-62.975,7.431-11.147,73.459,44.076A8,8,0,0,0,200,432H480v16H186.522ZM240,480H224V464h16Zm80,0H304V464h16Zm80,0H384V464h16Zm64,0V464h16v16Z"/>
    <path d="M304,168c0-79.4-64.6-144-144-144S16,88.6,16,168,80.6,312,160,312,304,247.4,304,168ZM104,283.082V243.314L131.314,216h57.372L216,243.314v39.768a127.84,127.84,0,0,1-112,0Zm56-153.467,38.7,25.8L185.966,200H134.034L121.3,155.417Zm72,144.159V248h27.841A129.08,129.08,0,0,1,232,273.774ZM270.817,232h-43.5l-26.328-26.328,13.547-47.417,40.506-13.5L287.95,164.5q.048,1.745.05,3.5A127.215,127.215,0,0,1,270.817,232ZM269.07,101.081a127.193,127.193,0,0,1,16.775,43.5l-21.174-12.7Zm-13.563-18.2-6.728,47.094-39.6,13.2L168,115.719V75.846l35.353-28.283A128.447,128.447,0,0,1,255.507,82.88ZM184.291,42.322,160,61.755,135.709,42.322a128.218,128.218,0,0,1,48.582,0Zm-67.644,5.241L152,75.846v39.873l-41.182,27.454-39.6-13.2L64.493,82.88A128.447,128.447,0,0,1,116.647,47.563Zm-61.318,84.31-21.174,12.7a127.193,127.193,0,0,1,16.775-43.5ZM32.05,164.5l32.911-19.747,40.506,13.5,13.547,47.417L92.686,232h-43.5A127.215,127.215,0,0,1,32,168Q32,166.244,32.05,164.5ZM60.159,248H88v25.774A129.08,129.08,0,0,1,60.159,248Z"/>
</svg>
