<svg xmlns="http://www.w3.org/2000/svg" viewBox="0 0 512 512">
    <linearGradient id="a" x1="256" y1="496" x2="256" y2="16" gradientUnits="userSpaceOnUse">
        <stop offset="0" stop-color="#12c2e9"/>
        <stop offset=".5" stop-color="#c471ed"/>
        <stop offset="1" stop-color="#f64f59"/>
    </linearGradient>
    <path d="M487.137 236.386a8 8 0 00-5.2-4.148l-9-2.248a39.776 39.776 0 00-44 18.225l-29.04 48.4C377.634 280.829 337.658 258.425 288 256.2v-54.249a133.4 133.4 0 0024.949 2.548c18.236 0 33.409-4.664 45.33-13.973C383.708 170.673 384 137.406 384 136a8 8 0 00-6.431-7.845c-45.08-9.014-71.425 8.39-85.59 24.577a87.389 87.389 0 00-3.979 4.9v-18.377l52.358-53.671a41.5 41.5 0 000-57.563 39.458 39.458 0 00-56.712 0L280 31.754l-3.644-3.734a39.458 39.458 0 00-56.714 0 41.5 41.5 0 000 57.566L272 139.255v42.378a86.671 86.671 0 00-3.979-4.9c-14.165-16.189-40.513-33.593-85.59-24.577A8 8 0 00176 160c0 1.406.292 34.673 25.721 54.526 11.922 9.309 27.092 13.973 45.33 13.973A133.4 133.4 0 00272 225.951V256.2c-58.374 2.628-103.551 33.259-122.262 48.212-29.777 2.417-48.572 15.106-59.395 25.929A82.144 82.144 0 0074.748 352H32a8 8 0 00-8 8v96a8 8 0 008 8h47.338l191.347 31.892A8.091 8.091 0 00272 496a8 8 0 003.743-.93l136-72a8 8 0 003.661-4.041l72-176a8 8 0 00-.267-6.643zm-119.789-93.738c-1.381 8.975-5.677 25-19.024 35.351-10.515 8.158-24.88 11.552-42.837 10.2l26.091-13.045a8 8 0 10-7.156-14.31l-29.08 14.54c9.635-16.884 30.321-38.445 72.006-32.736zm-138.926 56.507l26.09 13.045c-17.956 1.35-32.321-2.043-42.836-10.2-13.351-10.355-17.645-26.386-19.025-35.351 41.686-5.715 62.371 15.847 72.006 32.737l-29.079-14.54a8 8 0 10-7.156 14.31zM231.1 74.416a25.4 25.4 0 010-35.225 23.461 23.461 0 0133.807 0l9.37 9.6a8 8 0 0011.452 0l9.371-9.606a23.461 23.461 0 0133.8 0 25.4 25.4 0 010 35.224L288 116.343V80a8 8 0 00-16 0v36.343zM272 272.22V288a8 8 0 0016 0v-15.787c46.1 2.267 83.3 23.562 103.644 38.165l-20.322 33.87c-12 1.273-21.9 7.252-29.075 13.3A32.059 32.059 0 00312 336h-67.7c-6.493-8.68-25.181-27.3-67.693-31.243C198.076 290.8 231.663 274.209 272 272.22zm129.694 138.067l-131.047 69.377-189.332-31.556A8.054 8.054 0 0080 448H40v-80h40a8 8 0 007.589-5.47C87.731 362.1 102.432 320 160 320c56.817 0 71.934 25.916 72.863 27.616A7.71 7.71 0 00240 352h72a16.019 16.019 0 0116 16v8a16.019 16.019 0 01-16 16h-96a8 8 0 000 16h96a32.039 32.039 0 0031.869-29.18C347.66 374 360.041 360 376 360a8 8 0 006.86-3.884l59.8-99.669a23.868 23.868 0 0126.4-10.935l.036.009z" fill="url(#a)"/>
</svg>
