<svg xmlns="http://www.w3.org/2000/svg" viewBox="0 0 512 512">
    <path d="M470.359 224.644L400.305 197.7A55.959 55.959 0 00424 152v-24.8A40.067 40.067 0 00456 88V40a8 8 0 00-8-8H336a40.045 40.045 0 00-40 40v80a55.911 55.911 0 0020.972 43.647L256 207.842l-60.972-12.2A55.911 55.911 0 00216 152V72a40.045 40.045 0 00-40-40h-48a40.045 40.045 0 00-40 40v80a55.959 55.959 0 0023.7 45.7l-70.059 26.944A40.237 40.237 0 0016 261.978V368a8 8 0 008 8v96a8 8 0 008 8h200a8 8 0 008-8V300.529l16-9.6 16 9.6V472a8 8 0 008 8h200a8 8 0 008-8v-96a8 8 0 008-8V261.978a40.237 40.237 0 00-25.641-37.334zm-5.743 14.933A24.144 24.144 0 01480 261.978v6.374l-88-33.847v-22.857zM312 72a24.027 24.027 0 0124-24h104v40a24.027 24.027 0 01-24 24H312zm0 80v-24h96v24a40.045 40.045 0 01-40 40h-16a40.045 40.045 0 01-40-40zm64 55.419v28.1c-10.836 6-21.164 6-32 0v-28.1a56.14 56.14 0 008 .581h16a56.14 56.14 0 008-.581zm-153.022 10.135L184 229.247v-19.488zM104 72a24.028 24.028 0 0124-24h48a24.028 24.028 0 0124 24v44.573c-8.672-3.927-20.458-11.246-24.411-23.1a8 8 0 00-13.246-3.127c-.274.274-25.795 25.438-58.343 29.191zm0 80v-16.385c27.287-2.567 49.91-17.58 61.445-26.78 9.441 14.3 25.731 21.816 34.555 25.011V152a40.045 40.045 0 01-40 40h-16a40.045 40.045 0 01-40-40zm64 55.419v28.1c-10.836 6-21.164 6-32 0v-28.1a56.14 56.14 0 008 .581h16a56.14 56.14 0 008-.581zM32 261.978a24.144 24.144 0 0115.384-22.4L120 211.648v22.857l-88 33.847zM40 376h32v88H40zm187.884-86.86A8 8 0 00224 296v168H88V328a8 8 0 00-16 0v32H32v-74.506l95.164-36.6A49.363 49.363 0 00152 255.959c9.205 0 18.41-2.88 27.378-8.62l71.157-21.347 12.087 42.308zM328 209.759v25.3l-50.956 25.478-10.968-38.391zM424 328v136H288V296a8 8 0 00-3.884-6.86l-12.566-7.54 64.057-32.46a47.11 47.11 0 0049.229-.247L480 285.494V360h-40v-32a8 8 0 00-16 0zm48 136h-32v-88h32z"/>
</svg>
