<svg xmlns="http://www.w3.org/2000/svg" viewBox="0 0 512 512">
    <path d="M40 352h62.556L80.109 486.685A8 8 0 0088 496h48a8 8 0 007.891-6.685L166.777 352H184v8a24.027 24.027 0 0024 24h16v104a8 8 0 008 8h48a8 8 0 008-8V384h16a24.027 24.027 0 0024-24v-8h17.223l22.886 137.315A8 8 0 00376 496h48a8 8 0 007.891-9.315l-9.5-57.029a23.98 23.98 0 006.439-1.663 24 24 0 0012.989-31.352L423.33 352H472a8 8 0 008-8v-32a8 8 0 00-8-8h-16V56a8 8 0 00-8-8H296V24a8 8 0 00-8-8h-64a8 8 0 00-8 8v24H64a8 8 0 00-8 8v248H40a8 8 0 00-8 8v32a8 8 0 008 8zm89.223 128H97.444l21.333-128h31.779zM272 480h-32v-96h32zm40-120a8.009 8.009 0 01-8 8h-96a8.009 8.009 0 01-8-8v-8h112zm70.777 120l-21.333-128h9.93l26.094 63a23.825 23.825 0 007.945 10.125L414.557 480zm44.26-71.12a8 8 0 01-14.786 0l-64.289-155.216 14.781-6.122 64.3 155.22a7.942 7.942 0 01-.006 6.118zm-88.39-258.847l-3.314 22.267-21.193 8.778-18.1-13.409a23.909 23.909 0 01-9.384-23.242l7.116-42.486 35.066 25.006a23.918 23.918 0 019.809 23.086zm-.4 38.381l18.369 44.345-14.781 6.123-18.368-44.346zM464 336h-47.3l-6.628-16H464zM232 32h48v16h-48zM72 64h368v240h-36.552l-52.629-127.054 3.654-24.559a39.853 39.853 0 00-16.338-38.461l-45.49-32.44a8 8 0 00-12.535 5.193L278.549 96H128a24.028 24.028 0 00-24 24v48a32 32 0 1064 0 8 8 0 0116 0v32a32 32 0 0064 0v-32a8.009 8.009 0 018-8h16.048a39.87 39.87 0 0014.469 20.528l19.96 14.79L351.493 304H72zm198.879 77.792a39.955 39.955 0 00-.29 2.208H256a24.028 24.028 0 00-24 24v32a16 16 0 01-32 0v-32a24 24 0 10-48 0 16 16 0 01-32 0v-48a8.009 8.009 0 018-8h147.869zM48 320h310.12l6.627 16H48z"/>
</svg>
