<svg xmlns="http://www.w3.org/2000/svg" viewBox="0 0 512 512">
    <linearGradient id="a" gradientUnits="userSpaceOnUse" x1="256" x2="256" y1="496" y2="16">
        <stop offset="0" stop-color="#12c2e9"/>
        <stop offset=".5" stop-color="#c471ed"/>
        <stop offset="1" stop-color="#f64f59"/>
    </linearGradient>
    <circle cx="265.667" cy="76" fill="url(#a)" r="12"/>
    <circle cx="217.667" cy="76" fill="url(#a)" r="12"/>
    <path d="M269.668 104h-16a8 8 0 11-16 0h-16a24 24 0 1048 0z" fill="url(#a)"/>
    <path d="M475.969 257.054l-168-96-.005.009a7.992 7.992 0 00-3.964-1.048V160h-24v-9.682c8.85-2.65 17.087-8.384 23.894-16.807a61.3 61.3 0 0013.74-36.111l17.954-53.723a8.025 8.025 0 00.412-2.532V23.933C336 9.842 325.172 0 309.668 0H189.533a21.269 21.269 0 00-18.72 10.913 21.27 21.27 0 00.272 21.667q.171.286.366.557L184 50.579V104c0 25.037 16.785 44.43 40 47.549V160h-20.512L104 52.859V16a8 8 0 00-6.06-7.761l-32-8A7.987 7.987 0 0059.2 1.6l-32 24a8 8 0 00-1.856 10.838l32 48c.046.07.1.133.149.2.08.112.16.223.246.331s.18.217.273.322c.058.066.11.137.171.2L192 227.181V296h-65.125a28.8 28.8 0 00-23.967 44.783q.163.245.343.476l74.436 95.654a8 8 0 0011.971.744l.151-.151 19.036 38.072A8 8 0 00216 480c.246 0 .5-.011.743-.034a8 8 0 006.952-5.768l16-56a8 8 0 00-2.035-7.855l-15.536-15.536L191.546 352h52.32l52.861 115.333a8 8 0 009.8 4.257L320 467.1V504a8 8 0 0013.657 5.657l32-32a8 8 0 001.933-8.187l-8-24-29.938-89.813 146.356-84.732a8 8 0 00-.039-13.87zm-152.406-18.4l8.875-13.312L312 211.719v-17.387l28.193 42.118c.064.1.131.19.2.283A17.813 17.813 0 01338.617 260l-4.094 4.094-53.243-28.229 4.386-17.544 14.79 4.931zM196.1 40l-11.426-15.882A5.514 5.514 0 01189.533 16h120.135C313.526 16 320 17.03 320 23.933v15.91l-12.74 38.123-22.936-34.4A8 8 0 00277.668 40zm3.9 64V56h73.387L301.6 98.315C300.4 119.386 283.114 136 268.709 136h-38.082C212.881 136 200 122.542 200 104zm64 48v8h-24v-8zm-56 24h88v28.9l-10.867-3.623-14.477-21.715a7.989 7.989 0 00-8.6-3.323l-32 8A8 8 0 00224 192v32a8 8 0 005.029 7.428l39.6 15.84L296 261.778V296h-88zm63.381 33.493l-4.919 19.676L240 218.584v-20.338l20.471-5.117zM42.854 33.859l22.9-17.175L88 22.246V52L65.965 68.526zM75.97 81.023l19.068-14.3L192 171.141v32.737zm147.045 337.305l-9.057 31.7-12.224-24.448L216 411.314zm127.832 51.511L336 484.687v-22.92l10.94-3.646zm-8.966-26.9l-33.6 11.2-52.009-113.472A8 8 0 00249 336h-73a8 8 0 00-6.51 12.649l36.061 50.485-20.8 20.8-68.672-88.244a12.8 12.8 0 0110.8-19.69h171.354zm-17.395-102.78L312 302.7v-32.44L332.253 281a8 8 0 009.4-1.412l8.273-8.274a33.723 33.723 0 003.469-43.9l-23.82-35.584 126.375 72.214z" fill="url(#a)"/>
</svg>
