<?xml version="1.0" encoding="UTF-8" standalone="no"?>
<svg width="320.53012" height="294.00467" viewBox="0 0 320.53012 294.00467" version="1.1" id="svg2"
    xmlns="http://www.w3.org/2000/svg"
    xmlns:svg="http://www.w3.org/2000/svg">
    <path d="m 150.87572,0.81604114 c -2.289,0.65799996 -5.024,1.98299996 -6.078,2.94599996 -1.054,0.963 -2.429,1.75 -3.055,1.75 -4.204,0 -11.204,14.7719999 -11.204,23.6429999 0,18.763 10.395,27.42 36,29.978 7.975,0.797 15.534,1.884 16.797,2.414 1.263,0.531 3.599,0.965 5.191,0.965 1.592,0 3.172,0.45 3.512,1 0.34,0.55 1.498,1 2.573,1 1.075,0 2.736,0.379 3.691,0.842 26.599,12.902 50.071,30.469 52.828,39.536999 0.354,1.167 1.339,2.912 2.187,3.878 5.647,6.429 13.351,24.694 16.241,38.503 2.994,14.302 4.614,16.24 13.575,16.24 12.266,0 24.671,14.289 26.043,30 1.831,20.948 -21.511,39.036 -40.544,31.421 -6.573,-2.63 -7.888,-1.881 -15.063,8.579 -6.699,9.764 -22.062,26 -24.604,26 -0.785,0 -1.427,0.399 -1.427,0.886 0,0.487 -1.556,1.624 -3.458,2.527 -1.901,0.902 -3.736,2.091 -4.076,2.642 -0.872,1.411 -17.092,9.444 -23.901,11.838 -17.55,6.168 -41.818,7.638 -59.065,3.578 -3.85,-0.906 -8.243,-1.885 -9.762,-2.175 -1.519,-0.29 -3.009,-0.925 -3.309,-1.411 -0.301,-0.487 -1.361,-0.885 -2.356,-0.885 -10.95,0 -43.075997,-25.267 -55.065997,-43.309 -6.263,-9.425 -8.225,-10.438 -15.682,-8.092 -30.585,9.62 -53.1999995,-28.749 -30.898,-52.422 5.222,-5.543 15.931,-10.13 23.73,-10.165 2.868,-0.013 4.981,-4.979 6.305,-14.818 1.515,-11.258 16.269,-42.438 21.657,-45.768 0.557,-0.344 2.221,-2.286999 3.697,-4.318999 2.925,-4.025 18.479,-18.107 19.999,-18.107 0.517,0 1.519,-0.697 2.226,-1.55 0.707,-0.852 3.209997,-2.426 5.561997,-3.497 2.352,-1.071 4.555,-2.399 4.895,-2.95 0.341,-0.552 1.424,-1.003 2.406,-1.003 2.071,0 4.575,-2.564 5.512,-5.645 1.357,-4.462 -5.62,-7.181 -9.975,-3.887 -1.067,0.808 -2.728,1.483 -3.691,1.5 -0.963,0.018 -1.75,0.452 -1.75,0.965 0,0.513 -1.011997,1.251 -2.249997,1.64 -2.557,0.805 -3.78,1.692 -16.274,11.805 -4.963,4.017 -11.032,9.738 -13.486,12.713 -2.454,2.975 -4.73,5.634 -5.057,5.909 -4.221,3.551 -17.201,27.754999 -19.842,36.999999 -0.707,2.475 -1.692,5.281 -2.188,6.236 -0.497,0.955 -0.903,2.724 -0.903,3.929 0,6.011 -2.997,10.794 -6.778,10.82 -2.587,0.017 -14.984,5.912 -19.035,9.051 -9.8309995,7.618 -16.8939995,27.064 -14.1159995,38.862 2.254,9.576 7.505,19.645 12.5569995,24.081 8.405,7.379 17.506,10.521 30.476,10.521 11.688,0 16.777,2.149 16.921,7.144 0.013,0.471 2.601,3.617 5.75,6.991 3.149,3.375 6.441,6.975 7.317,8 20.155,23.605 73.401997,41.095 104.800997,34.425 7.708,-1.638 25.852,-6.913 30.107,-8.754 7.854,-3.398 12.594,-5.78 14.257,-7.165 0.966,-0.805 2.589,-1.953 3.607,-2.552 10.464,-6.158 27.56,-22.303 33.751,-31.873 l 4.429,-6.847 10.33,0.692 c 18.951,1.27 39.029,-11.119 42.214,-26.047 0.354,-1.658 1.09,-3.569 1.636,-4.247 4.692,-5.827 -0.519,-27.759 -9.036,-38.03 -6.929,-8.355 -10.576,-10.365 -26.806,-14.769 -0.614,-0.167 -1.375,-1.353 -1.69,-2.636 -3.844,-15.659 -5.164,-20.027 -7.713,-25.536 -1.639,-3.54 -2.981,-6.967 -2.983,-7.616 -0.003,-1.069 -1.821,-4.168 -5.996,-10.226 -0.825,-1.196 -3.589,-5.276 -6.142,-9.064999 -11.012,-16.343 -38.311,-36.9 -55.019,-41.432 -2.387,-0.648 -5.239,-1.529 -6.339,-1.958 -7.048,-2.752 -14.806,-4.282 -27.791,-5.48 -21.755,-2.008 -28.289,-6.62 -28.139,-19.866 0.128,-11.38 4.27,-15.338 21.15,-20.2149999 1.99,-0.575 2.737,-5.41 1.09,-7.056 -2.019,-2.01999996 -7.538,-2.49699996 -12.473,-1.07799996 M 113.49372,130.20804 c -2.859,0.446 -11.563,6.741 -13.567997,9.813 -3.828,5.866 3.650997,9.402 9.664997,4.57 7.201,-5.788 13.237,-6.01 19.653,-0.723 5.848,4.819 10.295,4.077 10.295,-1.717 0,-7.824 -13.312,-13.928 -26.045,-11.943 m 77.545,1.273 c -8.234,3.964 -12.174,9.041 -10.16,13.094 1.833,3.69 5.045,3.57 9.907,-0.372 6.862,-5.562 13.875,-5.712 19.613,-0.419 7.384,6.81 14.436,1.551 7.901,-5.892 -6.856,-7.808 -18.614,-10.573 -27.261,-6.411 m -80.5,53.138 c -16.369997,9.566 -11.679997,28.141 10.877,43.079 15.43,10.218 21.465,12.113 38.623,12.125 15.589,0.012 18.808,-0.896 36.178,-10.2 34.177,-18.307 29.222,-51.88 -6.678,-45.242 -13.667,2.527 -17.846,2.964 -29,3.034 -7.26,0.045 -16.109,-0.692 -24,-1.998 -18.726,-3.1 -21.894,-3.197 -26,-0.798" stroke="none" fill="#000" fill-rule="evenodd" />
</svg>
