<svg width="859.621" height="162.883" xmlns="http://www.w3.org/2000/svg" clip-rule="evenodd" fill-rule="evenodd" stroke-linejoin="round" stroke-miterlimit="2">
    <path d="M139.44 72.437s2.624-12.188 14.25-17.937c11.624-5.75 16.311-4.375 30.437-8.625 14.125-4.25 16.875-4.188 23.5-9.876 0 0 3.375-2.937 4.843 1.5 0 0 3.428 14.209-9.322 19.709s-14.396 2.291-16.74 3.416c-2.344 1.125-1.28 2.657 2.531 2.625 3.813-.031 12.25.344 14.656-.593 2.407-.938 5.907.406 1.344 7.156-4.562 6.75-13.187 7.562-18.375 6.438-5.187-1.125-8.78-2.813-11.125-.688 0 0 5.25 3.146 13 4.896s6.375 4.25 2.375 8.458c-4 4.209-9.906 7.396-17.594 3.615-7.687-3.782-20.864-12.656-28.739-9.115 0 0-1.25.334-.688 1.854 0 0 .755.839 1.85-.067 0 0 2.796-2.266 20.046 8.734 0 0 10.938 9.312 22.563 4.375 0 0 9.5-2.688 12.187-13.812 0 0 .344-2.938 4.125-4.876 3.781-1.937 9.938-6.875 10.938-17.375 0 0 .271-2.999 1.937-6.249 0 0 4.542-14.875 1.375-29.042 0 0-.79-10.292-3.75-8.042-2.958 2.25-4.937 7.083-13.5 12.146 0 0-7.5 4.479-34.583 12.896-27.083 8.417-24.542 15.729-29.167 24.417 0 0-1.833 3.499 0 5.208 0 0 1.396.896 1.625-1.146M80.497 70.437S77.872 58.249 66.247 52.5c-11.625-5.75-16.313-4.375-30.438-8.625s-16.875-4.188-23.5-9.876c0 0-3.375-2.937-4.844 1.5 0 0-3.427 14.209 9.323 19.709s14.396 2.291 16.74 3.416c2.344 1.125 1.281 2.657-2.53 2.625-3.814-.031-12.25.344-14.658-.593-2.406-.938-5.906.406-1.343 7.156 4.562 6.75 13.187 7.562 18.375 6.438 5.187-1.125 8.781-2.813 11.125-.688 0 0-5.25 3.146-13 4.896s-6.375 4.25-2.375 8.458c4 4.209 9.906 7.396 17.593 3.615 7.688-3.782 20.865-12.656 28.74-9.115 0 0 1.25.334.688 1.854 0 0-.755.839-1.849-.067 0 0-2.797-2.266-20.047 8.734 0 0-10.938 9.312-22.563 4.375 0 0-9.5-2.688-12.187-13.812 0 0-.344-2.938-4.125-4.876-3.782-1.937-9.938-6.875-10.938-17.375 0 0-.27-2.999-1.937-6.249 0 0-4.542-14.875-1.375-29.042 0 0 .791-10.292 3.75-8.042 2.958 2.25 4.937 7.083 13.5 12.146 0 0 7.5 4.479 34.583 12.896 27.083 8.417 24.542 15.729 29.167 24.417 0 0 1.833 3.499 0 5.208 0 0-1.396.896-1.625-1.146M126.94 40.5c4.726 11.548-1.023 23.509-11.502 27.796C104.96 72.585 93.415 66.549 88.69 55c-4.727-11.547-1.006-24.657 9.637-28.518 10.404-3.774 23.887 2.47 28.612 14.018M109.19 12.375c-9.804 0-17.75-2.099-17.75-4.687C91.44 5.099 99.386 3 109.19 3c9.803 0 17.75 2.099 17.75 4.688 0 2.588-7.947 4.687-17.75 4.687M107.784 0C95.72 0 85.94 3.876 85.94 8.656c0 4.781 9.78 8.656 21.844 8.656 12.063 0 21.843-3.875 21.843-8.656 0-4.78-9.78-8.656-21.843-8.656M62.482 102.625S33.67 127.531 39.42 139.697c5.75 12.166 33.894 18.303 86.894 3.053 0 0 18.063-4.5 38.375-17.063 0 0 9.211-6.032-.438-9.499 0 0-3.312-1.396.792-1.438 4.106-.042 15.731 1.708 11.231 8.583s-23.959 22.417-64.834 31.792-78.352 15.03-85.625-12c0 0-3.894-8.761 10.417-24.167 0 0 13.208-12.958 24.958-18.458 0 0 2.844-1.75 2.47 1.063 0 0-.183.185-1.178 1.062M275.371 61.09l-8.108-18.205-8.16 18.205zm-9.944-22.896h3.774l16.267 35.951h-4.335l-4.18-9.434h-19.43l-4.233 9.434h-4.13zM295.11 38.449h3.773l22.49 28.608V38.449h3.925v35.696h-3.212l-23.05-29.271v29.271h-3.927zM336.42 56.399v-.103c0-9.791 7.19-18.459 17.898-18.459 6.018 0 9.74 1.734 13.31 4.743l-2.6 3.059c-2.755-2.397-5.814-4.08-10.862-4.08-7.904 0-13.565 6.681-13.565 14.636v.101c0 8.517 5.456 14.84 14.125 14.84 4.081 0 7.854-1.581 10.302-3.569v-8.873h-10.862v-3.621h14.736V69.3c-3.313 2.958-8.312 5.457-14.328 5.457-11.22 0-18.155-8.159-18.155-18.358M380.585 38.449h25.804v3.672h-21.775v12.187h19.48v3.672h-19.48v12.493h22.03v3.672h-26.059zM417.356 38.449h4.03v31.974h20.091v3.722h-24.12z" fill="#f83d94" fill-rule="nonzero"/>
    <path fill="#f83d94" d="M451.882 38.449h4.028v35.696h-4.028z"/>
    <path d="M467.386 56.399v-.103c0-10.096 7.547-18.459 18.052-18.459 6.476 0 10.352 2.294 13.922 5.661l-2.754 2.957c-3.009-2.856-6.374-4.896-11.219-4.896-7.904 0-13.819 6.426-13.819 14.636v.101c0 8.262 5.965 14.739 13.82 14.739 4.894 0 8.107-1.887 11.524-5.151l2.652 2.601c-3.723 3.773-7.803 6.272-14.279 6.272-10.3 0-17.899-8.108-17.899-18.358" fill="#f83d94" fill-rule="nonzero"/>
    <path d="M536.54 42.172h-11.984v-3.724h28.046v3.724H540.62v31.974h-4.08zM577.746 56.654c5.354 0 9.18-2.754 9.18-7.344v-.101c0-4.386-3.367-7.037-9.129-7.037h-11.015v14.482zm-14.992-18.205h15.35c4.384 0 7.903 1.326 10.147 3.569 1.733 1.735 2.754 4.233 2.754 7.037v.103c0 5.915-4.08 9.383-9.69 10.402l10.964 14.585h-4.946l-10.352-13.871h-10.199v13.871h-4.028zM602.228 38.449h25.803v3.672h-21.775v12.187h19.481v3.672h-19.48v12.493h22.03v3.672h-26.059zM662.15 61.09l-8.108-18.205-8.16 18.205zm-9.944-22.896h3.774l16.267 35.951h-4.334l-4.182-9.434h-19.43l-4.232 9.434h-4.13zM678.83 68.944l2.498-2.958c3.723 3.365 7.293 5.049 12.24 5.049 4.792 0 7.954-2.55 7.954-6.069v-.102c0-3.315-1.785-5.201-9.28-6.782-8.21-1.785-11.984-4.437-11.984-10.301v-.103c0-5.609 4.946-9.739 11.728-9.739 5.201 0 8.924 1.479 12.545 4.386l-2.346 3.11c-3.314-2.703-6.629-3.876-10.3-3.876-4.64 0-7.599 2.55-7.599 5.763v.101c0 3.367 1.836 5.253 9.69 6.936 7.955 1.734 11.625 4.641 11.625 10.097v.102c0 6.119-5.098 10.097-12.187 10.097-5.66 0-10.3-1.887-14.584-5.711M715.856 59.204V38.449h4.03v20.5c0 7.7 4.077 12.034 10.911 12.034 6.58 0 10.76-3.977 10.76-11.779V38.449h4.03v20.449c0 10.403-5.967 15.808-14.89 15.808-8.823 0-14.842-5.405-14.842-15.502M772.718 56.654c5.354 0 9.18-2.754 9.18-7.344v-.101c0-4.386-3.367-7.037-9.129-7.037h-11.015v14.482zm-14.992-18.205h15.348c4.386 0 7.905 1.326 10.15 3.569 1.732 1.735 2.753 4.233 2.753 7.037v.103c0 5.915-4.08 9.383-9.69 10.402l10.964 14.585h-4.946l-10.352-13.871h-10.199v13.871h-4.028zM797.2 38.449h25.802v3.672h-21.775v12.187h19.48v3.672h-19.48v12.493h22.03v3.672H797.2zM831.625 68.944l2.498-2.958c3.723 3.365 7.293 5.049 12.24 5.049 4.792 0 7.954-2.55 7.954-6.069v-.102c0-3.315-1.785-5.201-9.28-6.782-8.21-1.785-11.984-4.437-11.984-10.301v-.103c0-5.609 4.946-9.739 11.728-9.739 5.201 0 8.924 1.479 12.545 4.386l-2.346 3.11c-3.314-2.703-6.629-3.876-10.3-3.876-4.64 0-7.599 2.55-7.599 5.763v.101c0 3.367 1.836 5.253 9.69 6.936 7.955 1.734 11.625 4.641 11.625 10.097v.102c0 6.119-5.098 10.097-12.187 10.097-5.66 0-10.3-1.887-14.584-5.711" fill="#38b1e0" fill-rule="nonzero"/>
    <g fill-rule="nonzero">
        <path d="M268.536 132.262c6.477 0 10.557-2.495 14.28-6.267l-2.652-2.602c-3.417 3.265-6.63 5.152-11.526 5.152-7.854 0-13.82-6.478-13.82-14.742v-.102c0-8.213 5.915-14.64 13.82-14.64 4.845 0 8.211 2.04 11.22 4.897l2.754-2.959c-3.57-3.364-7.446-5.655-13.923-5.655-10.506 0-18.047 8.359-18.047 18.459v.102c0 10.253 7.592 18.357 17.894 18.357zM293.43 131.65h4.023v-16.065h20.61v16.065h4.023V95.956h-4.023v15.861h-20.61V95.956h-4.023zM335.76 131.65h4.023v-13.872h10.203l10.355 13.872h4.942l-10.96-14.585c5.611-1.018 9.685-4.484 9.685-10.402v-.102c0-2.807-1.019-5.307-2.75-7.041-2.242-2.24-5.762-3.564-10.15-3.564H335.76zm4.023-17.487v-14.49h11.02c5.764 0 9.131 2.653 9.131 7.041v.102c0 4.592-3.826 7.347-9.183 7.347zM376.56 95.956h4.023v35.694h-4.023zM406.85 132.16c7.092 0 12.186-3.972 12.186-10.093v-.102c0-5.458-3.666-8.366-11.624-10.1-7.857-1.684-9.694-3.571-9.694-6.938v-.102c0-3.214 2.96-5.764 7.602-5.764 3.673 0 6.99 1.173 10.304 3.877l2.343-3.112c-3.617-2.904-7.34-4.38-12.545-4.38-6.786 0-11.727 4.125-11.727 9.736v.102c0 5.866 3.768 8.519 11.982 10.304 7.5 1.582 9.285 3.469 9.285 6.785v.102c0 3.52-3.163 6.07-7.959 6.07-4.948 0-8.52-1.683-12.238-5.05l-2.498 2.959c4.28 3.822 8.92 5.706 14.583 5.706zM439.493 131.65h4.074V99.673h11.985v-3.717h-28.044v3.717h11.985zM467.033 95.956h4.023v35.694h-4.023zM482.026 131.65h4.131l4.232-9.435h19.427l4.181 9.435h4.335l-16.266-35.949h-3.774zm9.943-13.05l8.16-18.213 8.107 18.213zM528.946 131.65h3.921v-29.269l23.057 29.269h3.208V95.956h-3.92v28.606l-22.498-28.606h-3.768zM591.68 131.65h12.388c11.223 0 18.97-7.798 18.97-17.847v-.102c0-10.049-7.747-17.745-18.97-17.745H591.68zm4.021-3.717v-28.26h8.367c9.03 0 14.794 6.223 14.794 14.13v.102c0 7.907-5.765 14.028-14.794 14.028zM629.724 131.65h4.131l4.232-9.435h19.427l4.181 9.435h4.335l-16.266-35.949h-3.774zm9.944-13.05l8.158-18.213 8.108 18.213zM682.203 131.65h4.074v-14.176l14.841-21.518h-4.692l-12.135 17.847-12.033-17.847h-4.896l14.841 21.569zM724.373 132.262c6.477 0 10.557-2.495 14.28-6.267l-2.652-2.602c-3.417 3.265-6.63 5.152-11.526 5.152-7.854 0-13.82-6.478-13.82-14.742v-.102c0-8.213 5.915-14.64 13.82-14.64 4.845 0 8.211 2.04 11.22 4.897l2.754-2.959c-3.57-3.364-7.446-5.655-13.923-5.655-10.506 0-18.047 8.359-18.047 18.459v.102c0 10.253 7.592 18.357 17.894 18.357zM746.207 131.65h4.131l4.232-9.435h19.427l4.181 9.435h4.335l-16.266-35.949h-3.774zm9.944-13.05l8.158-18.213 8.108 18.213zM793.127 131.65h4.023v-13.872h10.203l10.355 13.872h4.942l-10.96-14.585c5.611-1.018 9.685-4.484 9.685-10.402v-.102c0-2.807-1.019-5.307-2.75-7.041-2.242-2.24-5.762-3.564-10.15-3.564h-15.348zm4.023-17.487v-14.49h11.02c5.764 0 9.131 2.653 9.131 7.041v.102c0 4.592-3.826 7.347-9.183 7.347zM833.567 131.65h26.054v-3.666H837.59v-12.501h19.482v-3.666H837.59V99.622h21.777v-3.666h-25.799z"/>
    </g>
</svg>
