<?xml version="1.0" encoding="UTF-8" standalone="no"?>
<svg
   id="Layer_1"
   data-name="Layer 1"
   version="1.1"
   viewBox="0 0 554.39001 213.92264"
   width="554.39001"
   height="213.92264"
   xmlns="http://www.w3.org/2000/svg"
   xmlns:svg="http://www.w3.org/2000/svg">
  <defs
     id="defs1">
    <style
       id="style1">
      .cls-1 {
        fill: #1b75bc;
      }

      .cls-1, .cls-2, .cls-3 {
        stroke-width: 0px;
      }

      .cls-2 {
        fill: #ffbe00;
      }

      .cls-3 {
        fill: #000;
      }
    </style>
  </defs>
  <g
     id="g31"
     transform="translate(-262.8,-433.04)">
    <path
       class="cls-2"
       d="m 387.9,511.57 c -5.14,0 -10.14,0.63 -14.91,1.79 -27.36,6.7 -47.66,31.39 -47.66,60.85 0,16.99 6.76,32.41 17.74,43.69 11.36,11.69 27.24,18.95 44.83,18.95 34.57,0 62.58,-28.05 62.58,-62.64 0,-34.59 -28.01,-62.64 -62.58,-62.64 z m 1.27,44.64 c 0,-5.68 4.55,-10.28 10.18,-10.28 5.63,0 10.18,4.6 10.18,10.28 0,5.68 -4.55,10.29 -10.18,10.29 -5.63,0 -10.18,-4.61 -10.18,-10.29 z m -26.23,5.13 c 5.62,0 10.18,4.61 10.18,10.29 0,5.68 -4.55,10.29 -10.18,10.29 -5.63,0 -10.18,-4.61 -10.18,-10.29 0,-5.68 4.55,-10.29 10.18,-10.29 z m 5.22,46.08 c -1.54,-0.47 -2.66,-1.65 -3.12,-3.06 -0.27,-0.87 -0.31,-1.84 -0.03,-2.78 0.74,-2.49 3.37,-3.9 5.84,-3.16 1.9,0.57 3.73,1.04 5.47,1.38 14.16,2.87 22.94,-1.45 28.26,-6.75 5.85,-5.82 7.51,-12.84 7.53,-12.87 0.61,-2.52 3.16,-4.07 5.67,-3.45 2.5,0.61 4.06,3.15 3.44,5.67 -0.01,0.04 -1.06,4.41 -4.12,9.69 -6.01,10.35 -19.84,24.18 -48.95,15.33 z"
       id="path1" />
    <path
       class="cls-2"
       d="m 566.08,617.32 -2.62,-0.06 c -10.51,-1.02 -19.23,-5.91 -26.16,-14.68 -0.28,-0.32 -0.48,-0.58 -0.58,-0.76 -0.1,-0.18 -0.15,-0.3 -0.15,-0.37 v -0.15 c 0,-0.08 1.74,-1.36 5.23,-3.84 3.08,-2.19 4.71,-3.29 4.87,-3.29 0.16,0.16 0.45,0.53 0.85,1.1 1.99,2.44 4.22,4.45 6.69,6.03 4.02,2.31 7.97,3.47 11.86,3.47 1.78,0 4.51,-0.51 8.18,-1.52 3.67,-1.01 6.46,-4.34 8.37,-9.99 0.36,-1.38 0.55,-2.68 0.55,-3.9 -0.08,-0.89 -0.22,-1.5 -0.43,-1.83 -0.93,-1.83 -3.89,-3.43 -8.88,-4.81 -1.95,-0.49 -4.83,-1.12 -8.64,-1.89 -8.84,-1.79 -14.95,-3.47 -18.31,-5.05 -9.29,-4.26 -13.93,-11.02 -13.93,-20.28 0,-6.21 2.49,-11.71 7.48,-16.5 4.79,-4.59 10.89,-7.49 18.31,-8.71 1.3,-0.2 2.94,-0.3 4.93,-0.3 9.04,0 16.55,3.07 22.51,9.2 2.43,2.44 4.42,5.26 5.96,8.47 0.89,1.79 1.52,3.23 1.89,4.32 l 0.3,0.97 -11.74,3.96 c 0,0 -0.22,-0.37 -0.55,-1.1 -1.14,-3 -2.7,-5.54 -4.69,-7.61 -3.53,-3.74 -8.01,-5.6 -13.45,-5.6 -1.62,0 -2.92,0.08 -3.89,0.24 -6.73,1.46 -11.26,4.39 -13.57,8.77 -0.61,1.14 -0.91,2.62 -0.91,4.45 0,4.3 3.08,7.41 9.25,9.32 2.35,0.85 6.55,1.87 12.6,3.05 4.18,0.85 7.36,1.56 9.55,2.13 12.53,3.25 18.8,9.62 18.8,19.12 0,1.58 -0.16,3.23 -0.49,4.93 -1.62,7.27 -5.44,13.05 -11.44,17.36 -5.27,3.57 -11.2,5.36 -17.77,5.36 z"
       id="path2" />
    <path
       class="cls-2"
       d="m 609.95,614.51 c -1.01,0 -2.01,-0.22 -2.98,-0.67 -2.39,-0.93 -4.22,-3.17 -5.48,-6.7 -2.27,-6.33 -3.41,-16.58 -3.41,-30.75 0,-8.81 0.47,-17.11 1.4,-24.91 0.49,-4.83 0.83,-7.41 1.03,-7.73 l 2.13,0.24 8.21,1.16 c 1.22,0.2 1.87,0.33 1.95,0.37 l -0.06,0.91 c -1.34,9.5 -2.01,19.31 -2.01,29.42 0,7.15 0.08,10.72 0.24,10.72 0.04,0 0.09,-0.11 0.15,-0.33 0.06,-0.22 0.13,-0.48 0.21,-0.76 l 2.68,-9.38 c 4.1,-14.66 7.54,-23.16 10.34,-25.52 1.5,-1.54 3.27,-2.35 5.29,-2.44 3.2,0 5.96,1.64 8.27,4.93 1.42,1.95 4.08,7.31 7.97,16.08 l 1.34,2.92 c 0,0 1.12,-2.07 3.23,-6.21 3.16,-6.29 5.25,-10.23 6.27,-11.81 3.04,-5.32 6.25,-7.98 9.61,-7.98 3.57,0 6.25,1.71 8.03,5.12 3.04,5.52 4.81,20.48 5.29,44.88 l 0.18,6.39 0.12,8.4 -1.95,0.12 c -4.87,0.32 -8.38,0.49 -10.53,0.49 -0.04,-0.04 -0.1,-1.81 -0.18,-5.3 -0.41,-18.07 -1.06,-31.02 -1.95,-38.85 -0.16,-1.34 -0.28,-2.01 -0.36,-2.01 -0.04,0 -0.2,0.24 -0.49,0.73 -0.29,0.49 -0.73,1.38 -1.34,2.68 -4.14,8.28 -7.06,13.56 -8.76,15.83 -2.23,2.96 -4.73,4.45 -7.48,4.45 -0.81,0 -1.5,-0.08 -2.07,-0.24 -2.15,-0.57 -4.06,-2.21 -5.72,-4.93 -1.5,-2.31 -4.1,-7.8 -7.79,-16.44 l -0.79,-1.58 c -0.12,0 -0.51,1.04 -1.16,3.11 -1.62,4.87 -3.55,11.31 -5.78,19.31 -2.92,10.47 -5.03,17.28 -6.33,20.4 -1.74,3.94 -4.2,5.91 -7.36,5.91 z"
       id="path3" />
    <path
       class="cls-2"
       d="m 696.05,607.75 h -12.6 c 0.12,-15.43 0.26,-26.25 0.43,-32.46 0.2,-6.37 0.59,-14.82 1.16,-25.33 0.97,0 4.16,0.16 9.55,0.49 l 3.04,0.18 -0.73,13.89 c -0.33,7.39 -0.53,13.48 -0.61,18.27 -0.08,3.25 -0.16,11.57 -0.24,24.97 z m -4.02,-62.97 c -0.65,0 -1.22,-0.06 -1.7,-0.18 -2.39,-0.73 -4.08,-2.38 -5.05,-4.93 -0.36,-0.97 -0.55,-1.97 -0.55,-2.98 0,-1.01 0.15,-1.92 0.46,-2.83 0.3,-0.91 0.73,-1.74 1.28,-2.47 0.55,-0.73 1.17,-1.32 1.86,-1.77 1.26,-0.77 2.51,-1.16 3.77,-1.16 1.87,0 3.51,0.71 4.93,2.13 1.54,1.58 2.33,3.47 2.37,5.66 0,4.39 -1.93,7.19 -5.78,8.4 -0.41,0.08 -0.93,0.12 -1.58,0.12 z"
       id="path4" />
    <path
       class="cls-2"
       d="m 720.75,614.7 -1.34,-0.06 c -6.05,-0.69 -10.38,-4.2 -13.02,-10.54 -1.66,-3.86 -2.74,-9.58 -3.23,-17.17 -0.24,-3.82 -0.36,-8.4 -0.36,-13.76 0,-5.36 0.12,-11.59 0.36,-18.57 0.41,-11.37 0.65,-17.32 0.73,-17.84 l 12.47,0.43 c 0,0.77 -0.08,3.03 -0.24,6.76 -0.28,7.59 -0.47,13.58 -0.55,17.97 -0.12,4.71 -0.18,8.89 -0.18,12.55 0,14.33 1.14,23.12 3.41,26.37 0.32,0.53 0.65,0.87 0.97,1.04 0.32,0.16 0.81,0.24 1.46,0.24 0.32,-0.04 0.69,-0.08 1.09,-0.12 0.4,-0.04 0.95,-0.14 1.64,-0.3 l 3.23,12.12 c -1.58,0.61 -3.73,0.91 -6.45,0.91 z"
       id="path5" />
    <path
       class="cls-2"
       d="m 751.42,611.65 c -1.26,0 -2.37,-0.08 -3.35,-0.24 -7.46,-1.18 -13.24,-5.26 -17.34,-12.24 -2.92,-5.4 -4.38,-11.31 -4.38,-17.72 0,-10.11 3.53,-18.61 10.59,-25.52 2.31,-2.27 4.89,-4.08 7.73,-5.42 3.41,-1.58 6.67,-2.38 9.8,-2.38 1.34,0 3.39,0.3 6.14,0.91 2.76,0.61 5.19,2.78 7.3,6.52 1.22,2.23 1.83,4.73 1.83,7.49 0,2.48 -0.49,5.16 -1.46,8.04 -2.23,6.78 -6.59,12.26 -13.08,16.44 -3.73,2.27 -7.69,4.02 -11.86,5.24 -0.93,0.28 -1.4,0.47 -1.4,0.55 0,0.2 0.34,0.71 1.03,1.52 2.27,2.8 5.19,4.2 8.76,4.2 1.95,0 4.12,-0.41 6.51,-1.22 l 1.52,-0.49 c 3.04,7.59 4.56,11.47 4.56,11.63 -0.16,0.12 -0.61,0.3 -1.34,0.55 -3.81,1.42 -7.67,2.13 -11.56,2.13 z m -12.35,-30.69 0.61,-0.18 c 0.36,-0.12 0.79,-0.28 1.28,-0.49 8.96,-2.96 14.22,-7.86 15.76,-14.68 0.2,-0.81 0.32,-1.6 0.36,-2.38 0,-0.81 -0.06,-1.34 -0.18,-1.58 -0.33,-0.61 -1.16,-0.91 -2.49,-0.91 -0.61,0 -1.28,0.08 -2.01,0.24 -3.04,0.85 -5.76,2.7 -8.15,5.54 -2.92,3.45 -4.62,7.41 -5.11,11.88 -0.08,0.85 -0.12,1.6 -0.12,2.25 0,0.2 0.02,0.3 0.06,0.3 z"
       id="path6" />
    <path
       class="cls-2"
       d="m 793.22,610.43 h -1.7 c -1.06,0 -1.93,-0.02 -2.62,-0.06 -4.22,-0.37 -7.95,-1.32 -11.2,-2.86 -2.03,-0.93 -3.04,-1.56 -3.04,-1.89 0,-0.12 2.35,-3.51 7.06,-10.17 1.87,1.02 3.87,1.71 6.02,2.07 1.09,0.2 2.62,0.3 4.56,0.3 1.5,0 2.76,-0.06 3.77,-0.18 2.15,-0.2 4.24,-0.73 6.27,-1.58 1.22,-0.49 1.89,-0.91 2.01,-1.28 0,-0.04 -0.03,-0.1 -0.09,-0.18 -0.06,-0.08 -0.15,-0.22 -0.27,-0.43 -1.38,-1.75 -4.24,-4.02 -8.58,-6.82 -6.29,-4.02 -9.65,-6.19 -10.1,-6.52 -5.52,-3.73 -9.23,-7.37 -11.14,-10.9 -0.93,-1.71 -1.4,-3.59 -1.4,-5.66 0,-1.75 0.39,-3.44 1.16,-5.09 0.77,-1.64 1.83,-3.14 3.16,-4.48 2.92,-2.88 6.53,-4.97 10.83,-6.27 2.96,-0.93 5.98,-1.4 9.07,-1.4 7.42,0 13.65,2.46 18.68,7.37 0.61,0.61 0.91,0.95 0.91,1.04 0,0.09 -3.08,2.88 -9.25,8.4 l -0.73,-0.73 c -2.56,-2.31 -5.72,-3.47 -9.49,-3.47 -1.87,0 -3.77,0.3 -5.72,0.91 -1.66,0.57 -3.16,1.32 -4.5,2.25 -0.89,0.69 -1.34,1.16 -1.34,1.4 0,1.26 4.28,4.63 12.84,10.11 5.84,3.69 9.96,6.62 12.35,8.77 4.3,3.94 6.45,7.94 6.45,12 l -0.06,1.22 c -1.22,7.55 -7.75,12.18 -19.59,13.89 -1.06,0.12 -2.49,0.2 -4.32,0.24 z"
       id="path7" />
    <path
       class="cls-1"
       d="m 601.1,526.34 c -0.12,0 -0.22,-0.17 -0.3,-0.52 -0.08,-0.34 -0.12,-3.58 -0.12,-9.71 h -0.73 l -1.52,0.18 c -2.88,-7.75 -4.32,-11.71 -4.32,-11.88 0.28,-0.28 2.21,-0.59 5.78,-0.91 0.45,-0.04 0.71,-0.07 0.79,-0.09 0.08,-0.02 0.12,-0.33 0.12,-0.94 0,-4.83 0.47,-17.27 1.4,-37.33 l 0.24,-5.91 c -1.01,0 -4.28,0.35 -9.8,1.04 -3.33,0.45 -5.62,0.81 -6.88,1.1 -0.24,0.08 -0.49,0.12 -0.73,0.12 -0.12,0 -1.06,-1.89 -2.8,-5.66 l -2.68,-5.6 c 0,-0.12 0.81,-0.43 2.43,-0.91 5.44,-1.5 16.81,-2.7 34.14,-3.59 3.69,-0.16 7.95,-0.24 12.78,-0.24 5.48,0 8.38,0.08 8.7,0.24 0.04,0.04 0.06,0.22 0.06,0.55 0,0.89 -0.08,2.8 -0.24,5.72 -0.24,3.41 -0.37,5.46 -0.37,6.15 l -6.27,-0.06 c -10.02,0 -15.21,0.12 -15.58,0.37 -0.12,0.37 -0.36,4.73 -0.73,13.09 -0.41,9.42 -0.67,16 -0.79,19.73 l -0.36,11.57 9.98,0.12 c 1.09,0.04 1.65,0.06 1.67,0.06 0.02,0 0.03,0.08 0.03,0.24 0,0.81 -0.1,2.7 -0.3,5.66 -0.24,3.25 -0.37,5.46 -0.37,6.64 l -11.13,-0.12 0.06,10.35 -12.17,0.55 z"
       id="path8" />
    <path
       class="cls-1"
       d="m 646.67,526.52 h -12.6 c 0.12,-15.43 0.26,-26.25 0.43,-32.46 0.2,-6.37 0.59,-14.82 1.16,-25.33 0.97,0 4.16,0.16 9.55,0.49 l 3.04,0.18 -0.73,13.89 c -0.33,7.39 -0.53,13.48 -0.61,18.27 -0.08,3.25 -0.16,11.57 -0.24,24.97 z m -4.02,-62.97 c -0.65,0 -1.22,-0.06 -1.7,-0.18 -2.39,-0.73 -4.08,-2.38 -5.05,-4.93 -0.36,-0.97 -0.55,-1.97 -0.55,-2.98 0,-1.01 0.15,-1.92 0.46,-2.83 0.3,-0.91 0.73,-1.74 1.28,-2.47 0.55,-0.73 1.17,-1.32 1.86,-1.77 1.26,-0.77 2.51,-1.16 3.77,-1.16 1.87,0 3.51,0.71 4.93,2.13 1.54,1.58 2.33,3.47 2.37,5.66 0,4.39 -1.93,7.19 -5.78,8.4 -0.41,0.08 -0.93,0.12 -1.58,0.12 z"
       id="path9" />
    <path
       class="cls-1"
       d="m 666.39,530.42 c -3.33,0 -5.56,-1.77 -6.69,-5.3 -0.65,-1.79 -1.32,-5.89 -2.01,-12.3 -0.69,-6.41 -1.58,-16.79 -2.68,-31.12 -0.73,-9.14 -1.22,-14.82 -1.46,-17.05 l -0.12,-1.46 2.01,-0.24 c 6.49,-0.85 9.98,-1.28 10.47,-1.28 0.04,0.08 0.12,0.81 0.24,2.19 0.12,1.38 0.26,3 0.43,4.87 0.12,1.06 0.27,2.83 0.46,5.33 0.18,2.5 0.38,5.16 0.61,7.98 0.22,2.82 0.42,5.26 0.58,7.31 0.16,2.05 0.24,3.17 0.24,3.35 0,0.18 0.02,0.27 0.06,0.27 0.08,0 0.32,-0.85 0.73,-2.56 1.95,-7.55 3.87,-13.19 5.78,-16.93 1.3,-2.4 2.66,-4.18 4.08,-5.36 1.91,-1.46 4.08,-2.19 6.51,-2.19 1.79,0 3.69,0.39 5.72,1.16 1.7,0.73 4,1.96 6.88,3.68 2.88,1.73 5.19,2.94 6.94,3.65 1.74,0.71 3.35,1.07 4.81,1.07 0.53,0 0.79,0.05 0.79,0.15 0,0.1 0.14,2.14 0.43,6.12 0.24,3.53 0.36,5.48 0.36,5.85 v 0.37 c 0,0.08 -0.16,0.12 -0.49,0.12 -3.29,0 -6.26,-0.44 -8.91,-1.31 -2.66,-0.87 -6.28,-2.69 -10.86,-5.45 -2.8,-1.66 -4.38,-2.5 -4.75,-2.5 -0.04,0 -0.18,0.24 -0.43,0.73 -0.69,1.42 -1.2,2.62 -1.52,3.59 -1.38,3.57 -3.45,11.35 -6.21,23.32 -2.31,10.35 -4.04,16.69 -5.17,19 -1.66,3.29 -3.93,4.93 -6.81,4.93 z"
       id="path10" />
    <path
       class="cls-1"
       d="m 735.02,529.2 h -1.7 c -1.06,0 -1.93,-0.02 -2.62,-0.06 -4.22,-0.37 -7.95,-1.32 -11.2,-2.86 -2.03,-0.93 -3.04,-1.56 -3.04,-1.89 0,-0.12 2.35,-3.51 7.06,-10.17 1.87,1.02 3.87,1.71 6.02,2.07 1.09,0.2 2.62,0.3 4.56,0.3 1.5,0 2.76,-0.06 3.77,-0.18 2.15,-0.2 4.24,-0.73 6.27,-1.58 1.22,-0.49 1.89,-0.91 2.01,-1.28 0,-0.04 -0.03,-0.1 -0.09,-0.18 -0.06,-0.08 -0.15,-0.22 -0.27,-0.43 -1.38,-1.75 -4.24,-4.02 -8.58,-6.82 -6.29,-4.02 -9.65,-6.19 -10.1,-6.52 -5.52,-3.73 -9.23,-7.37 -11.14,-10.9 -0.93,-1.71 -1.4,-3.59 -1.4,-5.66 0,-1.75 0.39,-3.44 1.16,-5.09 0.77,-1.64 1.83,-3.14 3.16,-4.48 2.92,-2.88 6.53,-4.97 10.83,-6.27 2.96,-0.93 5.98,-1.4 9.07,-1.4 7.42,0 13.65,2.46 18.68,7.37 0.61,0.61 0.91,0.95 0.91,1.04 0,0.09 -3.08,2.88 -9.25,8.4 l -0.73,-0.73 c -2.56,-2.31 -5.72,-3.47 -9.49,-3.47 -1.87,0 -3.77,0.3 -5.72,0.91 -1.66,0.57 -3.16,1.32 -4.5,2.25 -0.89,0.69 -1.34,1.16 -1.34,1.4 0,1.26 4.28,4.63 12.84,10.11 5.84,3.69 9.96,6.62 12.35,8.77 4.3,3.94 6.45,7.94 6.45,12 l -0.06,1.22 c -1.22,7.55 -7.75,12.18 -19.59,13.89 -1.06,0.12 -2.49,0.2 -4.32,0.24 z"
       id="path11" />
    <path
       class="cls-1"
       d="m 787.65,540.77 -3.04,-0.24 c -3.85,-0.69 -7.1,-2.46 -9.74,-5.3 -5.72,-5.77 -8.58,-17.7 -8.58,-35.81 0,-8.4 0.61,-18.7 1.83,-30.88 -6.69,-0.16 -10.08,-0.24 -10.16,-0.24 0,-0.93 0.08,-3.02 0.24,-6.27 0.16,-3.25 0.24,-5.34 0.24,-6.27 l 11.07,0.18 0.24,-1.95 c 0.12,-1.18 0.28,-2.53 0.49,-4.05 0.2,-1.52 0.38,-2.85 0.55,-3.99 0.16,-1.14 0.25,-1.73 0.27,-1.77 0.02,-0.04 0.07,-0.06 0.15,-0.06 0.24,0 0.91,0.07 2.01,0.21 1.09,0.14 2.44,0.31 4.05,0.52 1.6,0.2 3.02,0.4 4.26,0.58 1.24,0.18 1.9,0.27 1.98,0.27 l -0.61,4.99 c -0.45,3.37 -0.67,5.18 -0.67,5.42 0.24,0.08 4.02,0.18 11.32,0.3 v 12.61 l -12.84,-0.24 -0.06,0.79 c -1.22,12.06 -1.82,22.21 -1.82,30.45 0,6.9 0.43,12.46 1.28,16.69 1.34,7.06 3.51,10.84 6.51,11.33 l 1.28,0.24 -0.24,12.48 z"
       id="path12" />
    <path
       class="cls-1"
       d="m 639.95,628.75 c 1.26,0 2.44,0.24 3.54,0.71 1.1,0.47 2.06,1.12 2.89,1.94 0.82,0.82 1.47,1.79 1.94,2.89 0.47,1.1 0.71,2.28 0.71,3.52 0,1.24 -0.24,2.44 -0.71,3.55 -0.47,1.1 -1.12,2.07 -1.94,2.89 -0.82,0.82 -1.78,1.47 -2.89,1.94 -1.11,0.47 -2.28,0.71 -3.54,0.71 h -9.84 v -18.15 z m 0,14.21 c 0.7,0 1.36,-0.14 1.99,-0.41 0.63,-0.27 1.17,-0.64 1.63,-1.1 0.45,-0.46 0.82,-1.01 1.09,-1.63 0.27,-0.62 0.41,-1.29 0.41,-2.01 0,-0.72 -0.14,-1.37 -0.41,-2 -0.27,-0.63 -0.63,-1.17 -1.09,-1.63 -0.46,-0.46 -1,-0.82 -1.63,-1.09 -0.63,-0.27 -1.3,-0.41 -1.99,-0.41 h -5.9 v 10.27 h 5.9 z"
       id="path13" />
    <path
       class="cls-1"
       d="m 657.5,628.78 h 4.67 l 8.74,18.15 h -4.38 l -1.34,-2.78 h -10.71 l -1.34,2.78 h -4.38 z m -1.13,11.43 h 6.93 l -3.46,-7.2 -3.46,7.2 z"
       id="path14" />
    <path
       class="cls-1"
       d="m 687.92,628.75 -9.29,13.55 v 4.6 h -3.94 v -4.6 l -0.42,-0.6 -8.87,-12.95 h 4.78 l 6.48,9.46 6.48,-9.46 z"
       id="path15" />
    <path
       class="cls-1"
       d="m 697.86,633.17 c -0.65,-0.28 -1.3,-0.42 -1.97,-0.43 -0.66,0 -1.31,0.11 -1.94,0.34 -0.63,0.24 -1.19,0.58 -1.68,1.02 -0.49,0.45 -0.88,0.99 -1.18,1.63 -0.3,0.64 -0.45,1.35 -0.45,2.14 0,0.79 0.15,1.5 0.45,2.14 0.3,0.64 0.69,1.18 1.18,1.63 0.49,0.45 1.05,0.79 1.68,1.02 0.63,0.24 1.28,0.35 1.94,0.34 0.67,0 1.32,-0.15 1.97,-0.43 0.65,-0.28 1.23,-0.72 1.76,-1.31 h 4.57 c -0.63,1.54 -1.5,2.76 -2.6,3.66 -1.1,0.9 -2.3,1.5 -3.6,1.8 -1.29,0.3 -2.61,0.32 -3.95,0.07 -1.34,-0.25 -2.55,-0.77 -3.63,-1.54 -1.09,-0.77 -1.97,-1.78 -2.66,-3.02 -0.69,-1.24 -1.04,-2.7 -1.04,-4.36 0,-1.38 0.24,-2.62 0.73,-3.72 0.49,-1.09 1.13,-2.03 1.93,-2.81 0.8,-0.78 1.71,-1.38 2.76,-1.81 1.04,-0.43 2.11,-0.68 3.21,-0.75 h 0.97 c 0.81,0.03 1.6,0.18 2.38,0.42 0.78,0.25 1.51,0.6 2.2,1.08 0.69,0.47 1.32,1.06 1.89,1.75 0.57,0.69 1.04,1.51 1.4,2.46 h -4.57 c -0.52,-0.6 -1.11,-1.03 -1.76,-1.31 z"
       id="path16" />
    <path
       class="cls-1"
       d="m 712.77,628.78 h 4.67 l 8.74,18.15 h -4.38 l -1.34,-2.78 h -10.71 l -1.34,2.78 h -4.38 z m -1.13,11.43 h 6.93 l -3.46,-7.2 -3.46,7.2 z"
       id="path17" />
    <path
       class="cls-1"
       d="m 743.97,635.14 c 0,0.79 -0.07,1.48 -0.22,2.09 -0.15,0.6 -0.38,1.14 -0.7,1.62 -0.32,0.47 -0.73,0.89 -1.23,1.25 -0.51,0.36 -1.13,0.68 -1.86,0.96 l 4.02,5.86 h -4.78 l -3.7,-5.41 h -3.99 v 5.41 h -3.94 v -18.15 h 10.02 c 0.87,0 1.7,0.17 2.48,0.5 0.78,0.33 1.46,0.79 2.03,1.37 0.58,0.58 1.03,1.26 1.36,2.04 0.33,0.78 0.5,1.61 0.5,2.48 z m -6.38,2.41 c 0.86,0 1.47,-0.19 1.85,-0.57 0.38,-0.38 0.56,-1 0.56,-1.86 0,-0.86 -0.19,-1.5 -0.56,-1.87 -0.38,-0.37 -0.99,-0.55 -1.85,-0.55 h -6.09 v 4.86 h 6.09 z"
       id="path18" />
    <path
       class="cls-1"
       d="m 754.49,628.75 h 9.34 v 3.94 h -12.81 v 3.18 h 11.47 v 3.94 h -11.47 v 3.15 h 12.81 v 3.94 h -16.74 v -18.15 z"
       id="path19" />
    <path
       class="cls-2"
       d="m 299.78,468.41 v 0 c -5.38,28.2 19.34,52.95 47.52,47.56 v 0 c 0,0 0,0 0,0 5.38,-28.2 -19.34,-52.95 -47.52,-47.56 z"
       id="path20" />
    <path
       class="cls-2"
       d="m 453.73,550.33 v 0 c 13.86,20.43 43.94,20.43 57.8,0 v 0 0 c -13.86,-20.43 -43.94,-20.43 -57.8,0 z"
       id="path21" />
    <path
       class="cls-2"
       d="m 320.6,552.61 v 0 c -13.86,-20.43 -43.94,-20.43 -57.8,0 v 0 0 c 13.86,20.43 43.94,20.43 57.8,0 z"
       id="path22" />
    <path
       class="cls-2"
       d="m 422.79,513.69 v 0 c 28.18,5.39 52.91,-19.36 47.52,-47.56 v 0 c 0,0 0,0 0,0 -28.18,-5.39 -52.9,19.36 -47.52,47.56 z"
       id="path23" />
    <path
       class="cls-2"
       d="m 384.23,500.31 v 0 c 23.73,-16.13 23.73,-51.13 0,-67.27 v 0 c 0,0 0,0 0,0 -23.73,16.13 -23.73,51.13 0,67.27 z"
       id="path24" />
    <g
       id="g30">
      <path
         class="cls-1"
         d="m 339.21,443.84 v 0 c -9.37,14.27 -1.41,33.51 15.3,36.97 v 0 c 0,0 0,0 0,0 9.37,-14.27 1.41,-33.51 -15.3,-36.97 z"
         id="path25" />
      <path
         class="cls-1"
         d="m 275.55,507.56 v 0 c 3.46,16.73 22.67,24.69 36.93,15.31 v 0 0 c -3.46,-16.73 -22.67,-24.69 -36.93,-15.31 z"
         id="path26" />
      <path
         class="cls-1"
         d="m 455.98,522.87 v 0 c 14.26,9.38 33.48,1.41 36.93,-15.31 v 0 0 c -14.26,-9.38 -33.48,-1.41 -36.93,15.31 z"
         id="path27" />
      <path
         class="cls-1"
         d="m 413.95,480.8 v 0 c 16.71,-3.46 24.67,-22.7 15.3,-36.97 v 0 c 0,0 0,0 0,0 -16.71,3.46 -24.67,22.7 -15.3,36.97 z"
         id="path28" />
      <path
         class="cls-1"
         d="m 455.98,582.36 v 0 c 3.46,16.73 22.67,24.69 36.93,15.31 v 0 0 c -3.46,-16.73 -22.67,-24.69 -36.93,-15.31 z"
         id="path29" />
      <path
         class="cls-1"
         d="m 275.55,597.67 v 0 c 14.26,9.38 33.48,1.41 36.93,-15.31 v 0 0 c -14.26,-9.38 -33.48,-1.41 -36.93,15.31 z"
         id="path30" />
    </g>
    <path
       class="cls-2"
       d="m 386.61,511.86 c -4.68,0 -9.24,0.52 -13.62,1.5 -27.72,6.22 -48.41,31 -48.41,60.61 0,17.24 6.99,32.83 18.3,44.07 0.06,-0.05 0.13,-0.1 0.2,-0.14 6.63,-5.3 13.96,-9.82 21.97,-13.54 -0.27,-0.87 -0.31,-1.84 -0.03,-2.78 0.74,-2.49 3.37,-3.9 5.84,-3.16 1.9,0.57 3.73,1.04 5.47,1.38 1.75,-0.61 3.52,-1.19 5.32,-1.72 7.54,-2.38 15.19,-4.06 22.93,-5.03 5.85,-5.82 7.51,-12.84 7.53,-12.87 0.61,-2.52 3.16,-4.07 5.67,-3.45 2.5,0.61 4.06,3.15 3.44,5.67 -0.01,0.04 -1.06,4.41 -4.12,9.69 1.21,-0.04 2.43,-0.05 3.65,-0.05 8.51,0 16.66,0.73 24.47,2.26 2.22,-6.37 3.43,-13.2 3.43,-20.32 0,-34.3 -27.79,-62.12 -62.06,-62.12 z m -23.67,70.06 c -5.62,0 -10.18,-4.61 -10.18,-10.29 0,-5.68 4.55,-10.29 10.18,-10.29 5.63,0 10.18,4.61 10.18,10.29 0,5.68 -4.55,10.29 -10.18,10.29 z m 36.4,-15.42 c -5.62,0 -10.18,-4.61 -10.18,-10.29 0,-5.68 4.55,-10.28 10.18,-10.28 5.63,0 10.18,4.6 10.18,10.28 0,5.68 -4.55,10.29 -10.18,10.29 z"
       id="path31" />
  </g>
</svg>
